<svg width="64" height="32" viewBox="0 0 64 32" fill="none" xmlns="http://www.w3.org/2000/svg">
<path d="M10 22.5C13.5899 22.5 16.5 19.5899 16.5 16C16.5 12.4101 13.5899 9.5 10 9.5C6.41015 9.5 3.5 12.4101 3.5 16C3.5 19.5899 6.41015 22.5 10 22.5Z" stroke="black" stroke-width="5.5"/>
<path d="M54 22.5C57.5899 22.5 60.5 19.5899 60.5 16C60.5 12.4101 57.5899 9.5 54 9.5C50.4101 9.5 47.5 12.4101 47.5 16C47.5 19.5899 50.4101 22.5 54 22.5Z" stroke="black" stroke-width="5.5"/>
<path d="M32 27.5C38.3513 27.5 43.5 22.3513 43.5 16C43.5 9.64873 38.3513 4.5 32 4.5C25.6487 4.5 20.5 9.64873 20.5 16C20.5 22.3513 25.6487 27.5 32 27.5Z" stroke="black" stroke-width="5.5"/>
</svg>
