<svg width="64" height="64" viewBox="0 0 64 64" fill="none" xmlns="http://www.w3.org/2000/svg">
<path d="M10.9564 10.9964L11.4265 55.6557C7.66569 56.1259 4.8451 54.2454 4.8451 50.4847L4.375 13.3469C4.375 1.59444 15.1873 -1.22615 21.7686 3.47484L55.1456 22.7489C59.8466 26.0396 60.7868 32.1508 58.4363 36.3817C57.9663 33.091 56.5559 31.2106 53.7353 29.3302L16.1274 8.17581C13.3069 6.29542 10.9564 6.76552 10.9564 10.9964Z" fill="#24292E"/>
<path d="M8.1355 58.0063C10.9561 58.9465 13.7767 58.4763 16.1271 57.0661L54.675 34.5013C57.0255 37.792 56.5554 41.0827 53.7348 42.9631L21.2982 61.767C16.5972 64.1175 10.486 61.767 8.1355 58.0063Z" fill="#24292E"/>
<path d="M19.4181 44.8435L42.4529 31.6808L19.8882 18.9881L19.4181 44.8435Z" fill="#FFC230"/>
</svg>
