<svg width="64" height="64" viewBox="0 0 64 64" fill="none" xmlns="http://www.w3.org/2000/svg">
<path fill-rule="evenodd" clip-rule="evenodd" d="M64 32C64 40.8027 60.8892 48.3467 54.6673 54.6316C54.4605 54.8774 54.2293 55.1037 53.9732 55.3103C52.9496 56.3135 51.8666 57.2235 50.7245 58.0396C45.3295 62.0133 39.0979 64 32.0295 64C24.9511 64 18.7295 62.0133 13.3641 58.0396C11.9465 57.0364 10.6174 55.9004 9.37702 54.6316C4.5432 49.8321 1.57504 44.255 0.472543 37.9013C0.256059 36.6621 0.113115 35.403 0.0443009 34.1245C0.014767 33.4163 0 32.7082 0 32C0 31.2526 0.014767 30.5394 0.0443009 29.8608C0.0443009 29.792 0.0637933 29.723 0.103369 29.6542C0.566165 21.8054 3.65719 15.0239 9.37702 9.30936C15.6677 3.10322 23.2187 0 32.0295 0C40.8699 0 48.4161 3.10322 54.6673 9.30936C60.8892 15.6335 64 23.1973 64 32Z" fill="#EEEEEE"/>
<path fill-rule="evenodd" clip-rule="evenodd" d="M57.4878 12.5403L50.8722 19.1498C47.0038 23.0146 46.6636 26.379 46.6636 32.3098C46.6636 37.6015 47.5059 42.446 51.4481 46.3845C54.3265 49.2602 57.0595 51.976 57.0595 51.976C56.3212 52.881 55.5238 53.7662 54.6673 54.6316C54.4606 54.8774 54.2293 55.1037 53.9732 55.3103C53.2252 56.0479 52.4472 56.7316 51.6401 57.361L46.4569 52.1826C41.8502 47.5795 38.1885 47.1369 32.1034 47.1369C26.2645 47.1369 22.2913 47.6745 18.0157 51.9465C15.4619 54.498 12.5372 57.4348 12.5372 57.4348C11.4246 56.5888 10.3714 55.6543 9.37703 54.6316C8.55008 53.8054 7.77718 52.9595 7.05862 52.0941C7.05862 52.0941 9.95235 49.1882 12.7144 46.4288C16.8054 42.3412 17.4693 37.6015 17.4693 32.3098C17.4693 27.1461 16.6205 22.3298 12.862 18.5745C10.2527 15.9672 6.64514 12.3781 6.64514 12.3781C7.48184 11.3158 8.39266 10.2928 9.37703 9.30935C10.2436 8.4634 11.1296 7.67173 12.0351 6.93407L18.0452 12.9387C21.8852 16.7751 26.8071 17.763 32.1034 17.763C37.5574 17.763 42.463 16.7076 46.4569 12.7174C48.9141 10.2624 52.1569 7.03734 52.1569 7.03734C53.0134 7.73576 53.8501 8.4929 54.6673 9.30935C55.6912 10.3518 56.6313 11.4288 57.4878 12.5403Z" fill="#3A3F51"/>
<path fill-rule="evenodd" clip-rule="evenodd" d="M23.2431 33.6376C23.1841 33.2933 23.1451 32.9442 23.125 32.5901C23.1155 32.3933 23.1102 32.1968 23.1102 32C23.1102 31.7935 23.1155 31.5966 23.125 31.4099C23.125 31.3901 23.1303 31.3706 23.1398 31.3509C23.2682 29.1771 24.1244 27.2987 25.7092 25.7151C27.4517 23.994 29.5439 23.1332 31.9852 23.1332C34.4365 23.1332 36.5287 23.994 38.2611 25.7151C39.9841 27.466 40.8453 29.5607 40.8453 32C40.8453 34.4393 39.9841 36.5293 38.2611 38.2702C38.2021 38.3389 38.1383 38.403 38.0692 38.462C37.7839 38.7373 37.4838 38.9881 37.1684 39.2144C35.6725 40.3159 33.9445 40.8668 31.9852 40.8668C30.0259 40.8668 28.3035 40.3162 26.8167 39.2144C26.4233 38.9388 26.0542 38.6243 25.7092 38.2702C24.3707 36.9424 23.5485 35.398 23.2431 33.6376Z" fill="#00CCFF"/>
<path d="M9.55425 54.8087L17.6318 46.7238M46.6045 17.6303L42.1745 21.953L46.6045 17.6303ZM9.09204 9.59735L21.1611 21.6137L9.09204 9.59735ZM46.1468 46.473L54.3596 54.9651L46.1468 46.473ZM54.9074 9.55605L46.6045 17.6303L54.9074 9.55605Z" stroke="#00CCFF" stroke-width="2" stroke-miterlimit="1"/>
<path d="M40.8457 41.2014L46.1701 46.4963M46.6045 17.6302L41.5985 22.7054L46.6045 17.6302ZM17.4161 17.8822L22.496 22.9426L17.4161 17.8822ZM17.609 46.7474L22.5559 41.6133L17.609 46.7474Z" stroke="#00CCFF" stroke-width="7" stroke-miterlimit="1"/>
</svg>
