<?xml version="1.0" encoding="UTF-8" standalone="no"?>
<!-- Created with Inkscape (http://www.inkscape.org/) -->

<svg
  width="64"
  height="64"
  viewBox="0 0 16.933333 16.933333"
  version="1.1"
  id="svg35"
  sodipodi:docname="logo.svg"
  inkscape:version="1.1 (c68e22c387, 2021-05-23)"
  xmlns:inkscape="http://www.inkscape.org/namespaces/inkscape"
  xmlns:sodipodi="http://sodipodi.sourceforge.net/DTD/sodipodi-0.dtd"
  xmlns="http://www.w3.org/2000/svg"
  xmlns:rdf="http://www.w3.org/1999/02/22-rdf-syntax-ns#"
  xmlns:cc="http://creativecommons.org/ns#"
  xmlns:dc="http://purl.org/dc/elements/1.1/">
  <defs
     id="defs30">
    <inkscape:path-effect
       effect="mirror_symmetry"
       start_point="55.942951,100.8305"
       end_point="56.431887,100.83051"
       center_point="56.187419,100.8305"
       id="path-effect29738"
       is_visible="true"
       lpeversion="1.1"
       mode="free"
       discard_orig_path="false"
       fuse_paths="false"
       oposite_fuse="false"
       split_items="false"
       split_open="false" />
    <inkscape:path-effect
       effect="mirror_symmetry"
       start_point="52.711642,100.67408"
       end_point="53.875338,100.67408"
       center_point="53.29349,100.67408"
       id="path-effect20974"
       is_visible="true"
       lpeversion="1.1"
       mode="free"
       discard_orig_path="false"
       fuse_paths="false"
       oposite_fuse="false"
       split_items="false"
       split_open="false" />
    <inkscape:path-effect
       effect="mirror_symmetry"
       start_point="199.92937,381.651"
       end_point="221.21076,381.67661"
       center_point="210.57007,381.66381"
       id="path-effect20034"
       is_visible="true"
       lpeversion="1.1"
       mode="free"
       discard_orig_path="false"
       fuse_paths="false"
       oposite_fuse="false"
       split_items="true"
       split_open="false" />
  </defs>
  <sodipodi:namedview
     id="base"
     pagecolor="#ffffff"
     bordercolor="#666666"
     borderopacity="1.0"
     inkscape:pageopacity="0.0"
     inkscape:pageshadow="2"
     inkscape:zoom="5.6568545"
     inkscape:cx="-3.9774755"
     inkscape:cy="30.670755"
     inkscape:document-units="px"
     inkscape:pagecheckerboard="0"
     showgrid="false"
     inkscape:lockguides="true"
     inkscape:snap-global="true"
     inkscape:snap-bbox="true"
     inkscape:window-width="1920"
     inkscape:window-height="1016"
     inkscape:window-x="0"
     inkscape:window-y="27"
     inkscape:window-maximized="1"
     inkscape:current-layer="svg35"
     units="px"
     width="64px" />
  <metadata
     id="metadata33">
    <rdf:RDF>
      <cc:Work
         rdf:about="">
        <dc:format>image/svg+xml</dc:format>
        <dc:type
           rdf:resource="http://purl.org/dc/dcmitype/StillImage" />
      </cc:Work>
    </rdf:RDF>
  </metadata>
  <g
     id="g21"
     transform="matrix(1.8885107,0,0,1.8885107,-7.0683591,-7.2003037)">
    <g
       id="g28625"
       transform="translate(-47.036653,-92.682781)">
      <g
         aria-label="D"
         id="text4483"
         style="font-size:10.5833px;line-height:1.25;white-space:pre;fill:#000000;stroke-width:0.264583">
        <path
           id="path12918"
           style="fill:#000000;stroke-width:0.999999"
           d="m 196.70312,367.11523 c -0.78761,0.93056 1.75262,5.92861 2.18221,8.97845 0.27273,1.93622 0.18572,5.60163 0.18572,5.60163 h 3.48312 c 0,0 -0.0147,-3.68169 -0.53717,-5.60163 -0.58452,-2.1478 -3.2282,-5.44796 -2.32938,-6.25831 0.69766,-0.62899 4.60931,1.3541 4.60931,1.3541 3.38663,2.17225 8.08333,0.0794 9.94531,1.90235 1.87499,1.80989 2.8125,4.66797 2.8125,8.57422 0,0.0102 1e-5,0.0192 0,0.0293 h 4.16015 c 1e-5,-0.01 0,-0.0195 0,-0.0293 0,-5 -1.32162,-8.67189 -3.96484,-11.01563 -2.64322,-2.35677 -6.84576,-3.58229 -12.49219,-3.86315 0,0 -7.40965,-0.43421 -8.05474,0.32797 z"
           transform="scale(0.26458333)"
           inkscape:path-effect="#path-effect20034"
           inkscape:original-d="m 196.70312,367.11523 c -0.78761,0.93056 1.75262,5.92861 2.18221,8.97845 0.27273,1.93622 0.18572,5.60163 0.18572,5.60163 h 3.48312 c 0,0 -0.0147,-3.68169 -0.53717,-5.60163 -0.58452,-2.1478 -3.2282,-5.44796 -2.32938,-6.25831 0.69766,-0.62899 4.60931,1.3541 4.60931,1.3541 3.38663,2.17225 8.08333,0.0794 9.94531,1.90235 1.87499,1.80989 2.8125,4.66797 2.8125,8.57422 0,0.0102 1e-5,0.0192 0,0.0293 h 4.16015 c 1e-5,-0.01 0,-0.0195 0,-0.0293 0,-5 -1.32162,-8.67189 -3.96484,-11.01563 -2.64322,-2.35677 -6.84576,-3.58229 -12.49219,-3.86315 0,0 -7.40965,-0.43421 -8.05474,0.32797 z"
           sodipodi:nodetypes="ssccssccsccscss" />
        <path
           transform="matrix(0.26458256,6.3679762e-4,6.3679762e-4,-0.26458256,-0.24288124,201.82938)"
           id="mirror-path-effect20034"
           d="m 196.70312,367.11523 c -0.78761,0.93056 1.75262,5.92861 2.18221,8.97845 0.27273,1.93622 0.18572,5.60163 0.18572,5.60163 h 3.48312 c 0,0 -0.0147,-3.68169 -0.53717,-5.60163 -0.58452,-2.1478 -3.2282,-5.44796 -2.32938,-6.25831 0.69766,-0.62899 4.60931,1.3541 4.60931,1.3541 3.38663,2.17225 8.08333,0.0794 9.94531,1.90235 1.87499,1.80989 2.8125,4.66797 2.8125,8.57422 0,0.0102 1e-5,0.0192 0,0.0293 h 4.16015 c 1e-5,-0.01 0,-0.0195 0,-0.0293 0,-5 -1.32162,-8.67189 -3.96484,-11.01563 -2.64322,-2.35677 -6.84576,-3.58229 -12.49219,-3.86315 0,0 -7.40965,-0.43421 -8.05474,0.32797 z"
           style="fill:#000000;stroke-width:0.999999" />
      </g>
      <path
         style="fill:#000000;stroke:#000000;stroke-width:0.05;stroke-linecap:butt;stroke-linejoin:miter;stroke-miterlimit:4;stroke-dasharray:none;stroke-opacity:1"
         d="m 52.696295,97.710124 c 0.11401,-0.127054 1.167106,0.39952 1.20191,0.625834 0.05264,0.342319 -0.221305,0.597472 -0.526169,0.613013 -0.215069,0.01096 -0.841467,-1.054158 -0.675741,-1.238847 z m 0,5.927916 c 0.11401,0.12705 1.167106,-0.39952 1.20191,-0.62584 0.05264,-0.34232 -0.221305,-0.59747 -0.526169,-0.61301 -0.215069,-0.011 -0.841467,1.05416 -0.675741,1.23885 z"
         id="path20485"
         sodipodi:nodetypes="ssss"
         inkscape:path-effect="#path-effect20974"
         inkscape:original-d="m 52.696295,97.710124 c 0.11401,-0.127054 1.167106,0.39952 1.20191,0.625834 0.05264,0.342319 -0.221305,0.597472 -0.526169,0.613013 -0.215069,0.01096 -0.841467,-1.054158 -0.675741,-1.238847 z"
         transform="translate(0.29896703,0.3161411)" />
    </g>
    <path
       id="path28462"
       style="stroke:#000000;stroke-width:0.0333683"
       inkscape:transform-center-x="-0.101086"
       inkscape:transform-center-y="-0.002246476"
       d="m 8.9710213,8.3020642 c 3.2e-5,0.065 -0.311056,0.17509 -0.311056,0.17509 0,0 -0.208672,0.23571 -0.311056,0.17509 -0.102383,-0.0606 -0.02163,-0.34643 -0.02163,-0.34643 0,0 -0.07425,-0.30908 0.02944,-0.36743 0.103681,-0.0583 0.307159,0.18184 0.307159,0.18184 0,0 0.307104,0.10257 0.307139,0.17362 z"
       sodipodi:nodetypes="scscscss" />
  </g>
</svg>
